<?xml version='1.0' encoding='iso-8859-1'?>
<!DOCTYPE svg PUBLIC '-//W3C//DTD SVG 1.1//EN' 'http://www.w3.org/Graphics/SVG/1.1/DTD/svg11.dtd'>
<!-- Uploaded to: SVG Repo, www.svgrepo.com, Generator: SVG Repo Mixer Tools -->
<svg height="800px" width="800px" version="1.1" xmlns="http://www.w3.org/2000/svg" viewBox="0 0 467.978 467.978" xmlns:xlink="http://www.w3.org/1999/xlink" enable-background="new 0 0 467.978 467.978">
  <g>
    <path d="m460.478,106.495h-452.978c-4.143,0-7.5,3.358-7.5,7.5v239.988c0,4.142 3.357,7.5 7.5,7.5h452.978c4.143,0 7.5-3.358 7.5-7.5v-239.988c0-4.142-3.358-7.5-7.5-7.5zm-412.179,136.994v62.21c2.13163e-14,2.761 2.238,5 5,5h3.611v35.784h-24.415v-102.994h15.804zm43.027,0v102.994h-24.416v-35.784h3.612c2.762,0 5-2.239 5-5v-62.21h15.804zm60.218,0v62.21c0,2.761 2.238,5 5,5h3.612v35.784h-24.415v-35.784h3.611c2.762,0 5-2.239 5-5v-62.21h7.192zm43.027,0v102.994h-24.415v-35.784h3.612c2.762,0 5-2.239 5-5v-62.21h15.803zm94.634,0v62.21c0,2.761 2.238,5 5,5h3.612v35.784h-24.416v-35.784h3.612c2.762,0 5-2.239 5-5v-62.21h7.192zm43.027,0v102.994h-24.415v-35.784h3.611c2.762,0 5-2.239 5-5v-62.21h15.804zm68.831,0v102.994h-24.415v-35.784h3.612c2.762,0 5-2.239 5-5v-62.21h15.803zm34.415,102.994h-24.415v-102.994h24.415v102.994zm-60.218-45.784h-7.225v-57.21h7.225v57.21zm-12.225,10h3.612v35.784h-24.415v-102.994h15.803v62.21c0,2.761 2.238,5 5,5zm-56.606-10h-7.224v-57.21h7.224v57.21zm-34.415,0h-7.224v-57.21h7.224v57.21zm-12.224,10h3.611v35.784h-24.415v-102.994h15.804v62.21c-2.84217e-14,2.761 2.238,5 5,5zm-30.804,35.784h-24.415v-102.994h24.415v102.994zm-60.217-45.784h-7.225v-57.21h7.225v57.21zm-34.416,0h-7.224v-57.21h7.224v57.21zm-12.224,10h3.612v35.784h-24.415v-102.994h15.803v62.21c1.42109e-14,2.761 2.238,5 5,5zm-56.607-10h-7.224v-57.21h7.224v57.21zm387.456,45.784h-7.5v-107.994c0-2.761-2.238-5-5-5h-412.983c-2.762,0-5,2.239-5,5v107.994h-7.495v-224.988h437.978v224.988z"/>
    <path d="m27.5,224.996h412.978c2.762,0 5-2.239 5-5v-86.001c0-2.761-2.238-5-5-5h-412.978c-2.762,0-5,2.239-5,5v86.001c0,2.761 2.238,5 5,5zm5-86.001h402.978v76.001h-402.978v-76.001z"/>
    <path d="m358.116,148.995h-93.698c-2.762,0-5,2.239-5,5v46.001c0,2.761 2.238,5 5,5h93.698c2.762,0 5-2.239 5-5v-46.001c0-2.762-2.238-5-5-5zm-5,46.001h-83.698v-36.001h83.698v36.001z"/>
    <path d="m56.618,161.477h-1v-7.482c0-2.761-2.238-5-5-5s-5,2.239-5,5v7.482h-1c-2.762,0-5,2.239-5,5s2.238,5 5,5h1v28.519c0,2.761 2.238,5 5,5s5-2.239 5-5v-28.519h1c2.762,0 5-2.239 5-5s-2.238-5-5-5z"/>
    <path d="m119.285,166.255h-1v-12.26c0-2.761-2.238-5-5-5s-5,2.239-5,5v12.26h-1c-2.762,0-5,2.239-5,5s2.238,5 5,5h1v23.741c0,2.761 2.238,5 5,5s5-2.239 5-5v-23.741h1c2.762,0 5-2.239 5-5s-2.238-5-5-5z"/>
    <path d="m181.951,171.033h-1v-17.038c0-2.761-2.238-5-5-5s-5,2.239-5,5v17.038h-1c-2.762,0-5,2.239-5,5s2.238,5 5,5h1v18.963c0,2.761 2.238,5 5,5s5-2.239 5-5v-18.963h1c2.762,0 5-2.239 5-5s-2.238-5-5-5z"/>
    <path d="m244.618,185.366h-1v-31.371c0-2.761-2.238-5-5-5s-5,2.239-5,5v31.371h-1c-2.762,0-5,2.239-5,5s2.238,5 5,5h1v4.63c0,2.761 2.238,5 5,5s5-2.239 5-5v-4.63h1c2.762,0 5-2.239 5-5s-2.238-5-5-5z"/>
    <path d="m87.951,175.81h-1v-21.816c0-2.761-2.238-5-5-5s-5,2.239-5,5v21.816h-1c-2.762,0-5,2.239-5,5s2.238,5 5,5h1v14.186c0,2.761 2.238,5 5,5s5-2.239 5-5v-14.186h1c2.762,0 5-2.239 5-5s-2.238-5-5-5z"/>
    <path d="m150.618,180.588h-1v-26.594c0-2.761-2.238-5-5-5s-5,2.239-5,5v26.594h-1c-2.762,0-5,2.239-5,5s2.238,5 5,5h1v9.408c0,2.761 2.238,5 5,5s5-2.239 5-5v-9.408h1c2.762,0 5-2.239 5-5s-2.238-5-5-5z"/>
    <path d="m213.285,156.699h-1v-2.705c0-2.761-2.238-5-5-5s-5,2.239-5,5v2.705h-1c-2.762,0-5,2.239-5,5s2.238,5 5,5h1v33.297c0,2.761 2.238,5 5,5s5-2.239 5-5v-33.297h1c2.762,0 5-2.239 5-5s-2.238-5-5-5z"/>
    <path d="m411.812,148.995c-7.536,0-13.667,6.131-13.667,13.667 0,7.536 6.131,13.667 13.667,13.667 7.535,0 13.666-6.131 13.666-13.667 0-7.537-6.131-13.667-13.666-13.667zm0,17.333c-2.022,0-3.667-1.645-3.667-3.667 0-2.021 1.645-3.667 3.667-3.667 2.021,0 3.666,1.645 3.666,3.667 0,2.022-1.645,3.667-3.666,3.667z"/>
    <path d="m382.944,148.995c-7.535,0-13.666,6.131-13.666,13.667 0,7.536 6.131,13.667 13.666,13.667 7.536,0 13.667-6.131 13.667-13.667 0-7.537-6.131-13.667-13.667-13.667zm0,17.333c-2.021,0-3.666-1.645-3.666-3.667 0-2.021 1.645-3.667 3.666-3.667 2.022,0 3.667,1.645 3.667,3.667 0,2.022-1.644,3.667-3.667,3.667z"/>
    <path d="m411.812,177.662c-7.536,0-13.667,6.131-13.667,13.667 0,7.536 6.131,13.667 13.667,13.667 7.535,0 13.666-6.131 13.666-13.667 0-7.536-6.131-13.667-13.666-13.667zm0,17.334c-2.022,0-3.667-1.645-3.667-3.667 0-2.022 1.645-3.667 3.667-3.667 2.021,0 3.666,1.645 3.666,3.667 0,2.022-1.645,3.667-3.666,3.667z"/>
    <path d="m382.944,177.662c-7.535,0-13.666,6.131-13.666,13.667 0,7.536 6.131,13.667 13.666,13.667 7.536,0 13.667-6.131 13.667-13.667 0-7.536-6.131-13.667-13.667-13.667zm0,17.334c-2.021,0-3.666-1.645-3.666-3.667 0-2.022 1.645-3.667 3.666-3.667 2.022,0 3.667,1.645 3.667,3.667 0,2.022-1.644,3.667-3.667,3.667z"/>
  </g>
</svg>