<svg width="22" height="12" viewBox="0 0 22 12" fill="none" xmlns="http://www.w3.org/2000/svg">
<path d="M1 5.99142C1 5.33594 1.12911 4.68688 1.37995 4.08129C1.63079 3.4757 1.99846 2.92545 2.46195 2.46195C2.92545 1.99846 3.4757 1.63079 4.08129 1.37995C4.68688 1.12911 5.33594 1 5.99142 1C9.98456 1 11.0057 4.32762 11.0172 5.99142C11.0172 6.64691 11.1463 7.29597 11.3971 7.90156C11.6479 8.50715 12.0156 9.0574 12.4791 9.52089C12.9426 9.98439 13.4929 10.3521 14.0984 10.6029C14.704 10.8537 15.3531 10.9828 16.0086 10.9828C16.6641 10.9828 17.3131 10.8537 17.9187 10.6029C18.5243 10.3521 19.0745 9.98439 19.538 9.52089C20.0015 9.0574 20.3692 8.50715 20.6201 7.90156C20.8709 7.29597 21 6.64691 21 5.99142" 
       stroke-linecap="round"/>
</svg>
